<svg width="1440" height="1024" viewBox="0 0 1440 1024" fill="none" xmlns="http://www.w3.org/2000/svg">
<g clip-path="url(#clip0_2_2)">
<rect width="1440" height="1024" fill="url(#paint0_linear_2_2)"/>
<g filter="url(#filter0_d_2_2)">
<path d="M560 56C560 58.7614 557.761 61 555 61C552.239 61 550 58.7614 550 56C550 53.2386 552.239 51 555 51C557.761 51 560 53.2386 560 56Z" fill="#F3F3F3"/>
<path d="M560 56C560 58.7614 557.761 61 555 61C552.239 61 550 58.7614 550 56C550 53.2386 552.239 51 555 51C557.761 51 560 53.2386 560 56Z" fill="#F3F3F3"/>
<path d="M560 56C560 58.7614 557.761 61 555 61C552.239 61 550 58.7614 550 56C550 53.2386 552.239 51 555 51C557.761 51 560 53.2386 560 56Z" fill="#F3F3F3"/>
<path d="M560 56C560 58.7614 557.761 61 555 61C552.239 61 550 58.7614 550 56C550 53.2386 552.239 51 555 51C557.761 51 560 53.2386 560 56Z" fill="#F3F3F3"/>
<path d="M560 56C560 58.7614 557.761 61 555 61C552.239 61 550 58.7614 550 56C550 53.2386 552.239 51 555 51C557.761 51 560 53.2386 560 56Z" fill="#F3F3F3"/>
<path d="M560 56C560 58.7614 557.761 61 555 61C552.239 61 550 58.7614 550 56C550 53.2386 552.239 51 555 51C557.761 51 560 53.2386 560 56Z" fill="#F3F3F3"/>
</g>
<g filter="url(#filter1_d_2_2)">
<path d="M316 96C316 98.7614 313.761 101 311 101C308.239 101 306 98.7614 306 96C306 93.2386 308.239 91 311 91C313.761 91 316 93.2386 316 96Z" fill="#F3F3F3"/>
<path d="M316 96C316 98.7614 313.761 101 311 101C308.239 101 306 98.7614 306 96C306 93.2386 308.239 91 311 91C313.761 91 316 93.2386 316 96Z" fill="#F3F3F3"/>
<path d="M316 96C316 98.7614 313.761 101 311 101C308.239 101 306 98.7614 306 96C306 93.2386 308.239 91 311 91C313.761 91 316 93.2386 316 96Z" fill="#F3F3F3"/>
<path d="M316 96C316 98.7614 313.761 101 311 101C308.239 101 306 98.7614 306 96C306 93.2386 308.239 91 311 91C313.761 91 316 93.2386 316 96Z" fill="#F3F3F3"/>
<path d="M316 96C316 98.7614 313.761 101 311 101C308.239 101 306 98.7614 306 96C306 93.2386 308.239 91 311 91C313.761 91 316 93.2386 316 96Z" fill="#F3F3F3"/>
<path d="M316 96C316 98.7614 313.761 101 311 101C308.239 101 306 98.7614 306 96C306 93.2386 308.239 91 311 91C313.761 91 316 93.2386 316 96Z" fill="#F3F3F3"/>
</g>
<g filter="url(#filter2_d_2_2)">
<path d="M638 198C638 200.761 635.761 203 633 203C630.239 203 628 200.761 628 198C628 195.239 630.239 193 633 193C635.761 193 638 195.239 638 198Z" fill="#F3F3F3"/>
<path d="M638 198C638 200.761 635.761 203 633 203C630.239 203 628 200.761 628 198C628 195.239 630.239 193 633 193C635.761 193 638 195.239 638 198Z" fill="#F3F3F3"/>
<path d="M638 198C638 200.761 635.761 203 633 203C630.239 203 628 200.761 628 198C628 195.239 630.239 193 633 193C635.761 193 638 195.239 638 198Z" fill="#F3F3F3"/>
<path d="M638 198C638 200.761 635.761 203 633 203C630.239 203 628 200.761 628 198C628 195.239 630.239 193 633 193C635.761 193 638 195.239 638 198Z" fill="#F3F3F3"/>
<path d="M638 198C638 200.761 635.761 203 633 203C630.239 203 628 200.761 628 198C628 195.239 630.239 193 633 193C635.761 193 638 195.239 638 198Z" fill="#F3F3F3"/>
<path d="M638 198C638 200.761 635.761 203 633 203C630.239 203 628 200.761 628 198C628 195.239 630.239 193 633 193C635.761 193 638 195.239 638 198Z" fill="#F3F3F3"/>
</g>
<g filter="url(#filter3_d_2_2)">
<path d="M982 221C982 223.761 979.761 226 977 226C974.239 226 972 223.761 972 221C972 218.239 974.239 216 977 216C979.761 216 982 218.239 982 221Z" fill="#F3F3F3"/>
<path d="M982 221C982 223.761 979.761 226 977 226C974.239 226 972 223.761 972 221C972 218.239 974.239 216 977 216C979.761 216 982 218.239 982 221Z" fill="#F3F3F3"/>
<path d="M982 221C982 223.761 979.761 226 977 226C974.239 226 972 223.761 972 221C972 218.239 974.239 216 977 216C979.761 216 982 218.239 982 221Z" fill="#F3F3F3"/>
<path d="M982 221C982 223.761 979.761 226 977 226C974.239 226 972 223.761 972 221C972 218.239 974.239 216 977 216C979.761 216 982 218.239 982 221Z" fill="#F3F3F3"/>
<path d="M982 221C982 223.761 979.761 226 977 226C974.239 226 972 223.761 972 221C972 218.239 974.239 216 977 216C979.761 216 982 218.239 982 221Z" fill="#F3F3F3"/>
<path d="M982 221C982 223.761 979.761 226 977 226C974.239 226 972 223.761 972 221C972 218.239 974.239 216 977 216C979.761 216 982 218.239 982 221Z" fill="#F3F3F3"/>
</g>
<g filter="url(#filter4_d_2_2)">
<path d="M757 462C757 464.761 754.761 467 752 467C749.239 467 747 464.761 747 462C747 459.239 749.239 457 752 457C754.761 457 757 459.239 757 462Z" fill="#F3F3F3"/>
<path d="M757 462C757 464.761 754.761 467 752 467C749.239 467 747 464.761 747 462C747 459.239 749.239 457 752 457C754.761 457 757 459.239 757 462Z" fill="#F3F3F3"/>
<path d="M757 462C757 464.761 754.761 467 752 467C749.239 467 747 464.761 747 462C747 459.239 749.239 457 752 457C754.761 457 757 459.239 757 462Z" fill="#F3F3F3"/>
<path d="M757 462C757 464.761 754.761 467 752 467C749.239 467 747 464.761 747 462C747 459.239 749.239 457 752 457C754.761 457 757 459.239 757 462Z" fill="#F3F3F3"/>
<path d="M757 462C757 464.761 754.761 467 752 467C749.239 467 747 464.761 747 462C747 459.239 749.239 457 752 457C754.761 457 757 459.239 757 462Z" fill="#F3F3F3"/>
<path d="M757 462C757 464.761 754.761 467 752 467C749.239 467 747 464.761 747 462C747 459.239 749.239 457 752 457C754.761 457 757 459.239 757 462Z" fill="#F3F3F3"/>
</g>
<g filter="url(#filter5_d_2_2)">
<path d="M816 86C816 88.7614 813.761 91 811 91C808.239 91 806 88.7614 806 86C806 83.2386 808.239 81 811 81C813.761 81 816 83.2386 816 86Z" fill="#F3F3F3"/>
<path d="M816 86C816 88.7614 813.761 91 811 91C808.239 91 806 88.7614 806 86C806 83.2386 808.239 81 811 81C813.761 81 816 83.2386 816 86Z" fill="#F3F3F3"/>
<path d="M816 86C816 88.7614 813.761 91 811 91C808.239 91 806 88.7614 806 86C806 83.2386 808.239 81 811 81C813.761 81 816 83.2386 816 86Z" fill="#F3F3F3"/>
<path d="M816 86C816 88.7614 813.761 91 811 91C808.239 91 806 88.7614 806 86C806 83.2386 808.239 81 811 81C813.761 81 816 83.2386 816 86Z" fill="#F3F3F3"/>
<path d="M816 86C816 88.7614 813.761 91 811 91C808.239 91 806 88.7614 806 86C806 83.2386 808.239 81 811 81C813.761 81 816 83.2386 816 86Z" fill="#F3F3F3"/>
<path d="M816 86C816 88.7614 813.761 91 811 91C808.239 91 806 88.7614 806 86C806 83.2386 808.239 81 811 81C813.761 81 816 83.2386 816 86Z" fill="#F3F3F3"/>
</g>
<g filter="url(#filter6_d_2_2)">
<path d="M1294 61C1294 63.7614 1291.76 66 1289 66C1286.24 66 1284 63.7614 1284 61C1284 58.2386 1286.24 56 1289 56C1291.76 56 1294 58.2386 1294 61Z" fill="#F3F3F3"/>
<path d="M1294 61C1294 63.7614 1291.76 66 1289 66C1286.24 66 1284 63.7614 1284 61C1284 58.2386 1286.24 56 1289 56C1291.76 56 1294 58.2386 1294 61Z" fill="#F3F3F3"/>
<path d="M1294 61C1294 63.7614 1291.76 66 1289 66C1286.24 66 1284 63.7614 1284 61C1284 58.2386 1286.24 56 1289 56C1291.76 56 1294 58.2386 1294 61Z" fill="#F3F3F3"/>
<path d="M1294 61C1294 63.7614 1291.76 66 1289 66C1286.24 66 1284 63.7614 1284 61C1284 58.2386 1286.24 56 1289 56C1291.76 56 1294 58.2386 1294 61Z" fill="#F3F3F3"/>
<path d="M1294 61C1294 63.7614 1291.76 66 1289 66C1286.24 66 1284 63.7614 1284 61C1284 58.2386 1286.24 56 1289 56C1291.76 56 1294 58.2386 1294 61Z" fill="#F3F3F3"/>
<path d="M1294 61C1294 63.7614 1291.76 66 1289 66C1286.24 66 1284 63.7614 1284 61C1284 58.2386 1286.24 56 1289 56C1291.76 56 1294 58.2386 1294 61Z" fill="#F3F3F3"/>
</g>
<g style="mix-blend-mode:color-dodge" opacity="0.8" filter="url(#filter7_f_2_2)">
<path d="M0 0H1440V576.369C1440 576.369 949.5 211.067 989.5 696.63C1029.5 1182.19 263.5 1099.63 417 475.721C570.5 -148.184 0 576.369 0 576.369V0Z" fill="#302E2E" fill-opacity="0.96" style="mix-blend-mode:lighten"/>
<path d="M0 0H1440V576.369C1440 576.369 949.5 211.067 989.5 696.63C1029.5 1182.19 263.5 1099.63 417 475.721C570.5 -148.184 0 576.369 0 576.369V0Z" fill="#425851" fill-opacity="0.79"/>
</g>
<g style="mix-blend-mode:color-dodge" opacity="0.8" filter="url(#filter8_f_2_2)">
<path d="M-14 0H1477V512.455C1477 512.455 969.128 187.662 1010.54 619.38C1051.96 1051.1 258.832 977.687 417.769 422.968C576.705 -131.752 -14 512.455 -14 512.455V0Z" fill="#151313" fill-opacity="0.96" style="mix-blend-mode:lighten"/>
<path d="M-14 0H1477V512.455C1477 512.455 969.128 187.662 1010.54 619.38C1051.96 1051.1 258.832 977.687 417.769 422.968C576.705 -131.752 -14 512.455 -14 512.455V0Z" fill="url(#paint1_linear_2_2)" fill-opacity="0.79"/>
</g>
<rect x="-120" y="606" width="328" height="469" fill="black"/>
<rect x="534" y="577" width="588" height="470" fill="#2E2D2D"/>
<rect x="982" y="559" width="21" height="32" fill="#2E2D2D"/>
<rect x="411" y="655" width="198" height="459" fill="#1A1A1A"/>
<rect x="427" y="635" width="16" height="255" fill="#1A1A1A"/>
<rect x="707" y="655" width="198" height="459" fill="#1D1C1C"/>
<rect x="707" y="655" width="198" height="459" fill="#1D1C1C"/>
<rect x="1043" y="635" width="443" height="475" fill="black"/>
<rect x="-73" y="959" width="1550" height="350" fill="black"/>
<rect class="win" x="27" y="635" width="31" height="36" fill="#F0CF21"/>
<rect x="27" y="701" width="31" height="36" fill="#F0CF21"/>
<rect x="90" y="635" width="31" height="36" fill="#F0CF21"/>
<rect x="550" y="735" width="31" height="36" fill="#EDC90F"/>
<rect x="736" y="671" width="31" height="36" fill="#EDC90F"/>
<rect x="790" y="671" width="31" height="36" fill="#EDC90F"/>
<rect x="844" y="671" width="31" height="36" fill="#EDC90F"/>
<rect x="844" y="735" width="31" height="36" fill="#EDC90F"/>
<rect x="790" y="735" width="31" height="36" fill="#EDC90F"/>
<rect x="736" y="735" width="31" height="36" fill="#EDC90F"/>
<rect x="736" y="794" width="31" height="36" fill="#EDC90F"/>
<rect x="1086" y="665" width="31" height="36" fill="#F0CF21"/>
<rect x="1086" y="717" width="31" height="36" fill="#F0CF21"/>
<rect x="1195" y="776" width="31" height="36" fill="#F0CF21"/>
<rect x="1249" y="776" width="31" height="36" fill="#F0CF21"/>
<rect x="1387" y="665" width="31" height="36" fill="#F0CF21"/>
<rect x="1387" y="719" width="31" height="36" fill="#F0CF21"/>
<rect x="1387" y="771" width="31" height="36" fill="#F0CF21"/>
<rect x="1387" y="823" width="31" height="36" fill="#F0CF21"/>
<rect x="227" y="655" width="157" height="460" fill="#1C1C1C"/>
<rect x="79" y="753" width="31" height="36" fill="#F0CF21"/>
<rect class="win" x="153" y="635" width="31" height="36" fill="#F0CF21"/>
<rect class="win" x="264" y="735" width="31" height="36" fill="#F2DF79"/>
<rect class="win" x="323" y="671" width="31" height="36" fill="#F2DF79"/>
<rect class="win" x="323" y="735" width="31" height="36" fill="#F2DF79"/>
<rect class="win" x="264" y="671" width="31" height="36" fill="#F2DF79"/>
</g>
<defs>
<filter id="filter0_d_2_2" x="530" y="31" width="50" height="50" filterUnits="userSpaceOnUse" color-interpolation-filters="sRGB">
<feFlood flood-opacity="0" result="BackgroundImageFix"/>
<feColorMatrix in="SourceAlpha" type="matrix" values="0 0 0 0 0 0 0 0 0 0 0 0 0 0 0 0 0 0 127 0" result="hardAlpha"/>
<feOffset/>
<feGaussianBlur stdDeviation="10"/>
<feComposite in2="hardAlpha" operator="out"/>
<feColorMatrix type="matrix" values="0 0 0 0 0.845833 0 0 0 0 0.845833 0 0 0 0 0.845833 0 0 0 1 0"/>
<feBlend mode="normal" in2="BackgroundImageFix" result="effect1_dropShadow_2_2"/>
<feBlend mode="normal" in="SourceGraphic" in2="effect1_dropShadow_2_2" result="shape"/>
</filter>
<filter id="filter1_d_2_2" x="286" y="71" width="50" height="50" filterUnits="userSpaceOnUse" color-interpolation-filters="sRGB">
<feFlood flood-opacity="0" result="BackgroundImageFix"/>
<feColorMatrix in="SourceAlpha" type="matrix" values="0 0 0 0 0 0 0 0 0 0 0 0 0 0 0 0 0 0 127 0" result="hardAlpha"/>
<feOffset/>
<feGaussianBlur stdDeviation="10"/>
<feComposite in2="hardAlpha" operator="out"/>
<feColorMatrix type="matrix" values="0 0 0 0 0.845833 0 0 0 0 0.845833 0 0 0 0 0.845833 0 0 0 1 0"/>
<feBlend mode="normal" in2="BackgroundImageFix" result="effect1_dropShadow_2_2"/>
<feBlend mode="normal" in="SourceGraphic" in2="effect1_dropShadow_2_2" result="shape"/>
</filter>
<filter id="filter2_d_2_2" x="608" y="173" width="50" height="50" filterUnits="userSpaceOnUse" color-interpolation-filters="sRGB">
<feFlood flood-opacity="0" result="BackgroundImageFix"/>
<feColorMatrix in="SourceAlpha" type="matrix" values="0 0 0 0 0 0 0 0 0 0 0 0 0 0 0 0 0 0 127 0" result="hardAlpha"/>
<feOffset/>
<feGaussianBlur stdDeviation="10"/>
<feComposite in2="hardAlpha" operator="out"/>
<feColorMatrix type="matrix" values="0 0 0 0 0.845833 0 0 0 0 0.845833 0 0 0 0 0.845833 0 0 0 1 0"/>
<feBlend mode="normal" in2="BackgroundImageFix" result="effect1_dropShadow_2_2"/>
<feBlend mode="normal" in="SourceGraphic" in2="effect1_dropShadow_2_2" result="shape"/>
</filter>
<filter id="filter3_d_2_2" x="952" y="196" width="50" height="50" filterUnits="userSpaceOnUse" color-interpolation-filters="sRGB">
<feFlood flood-opacity="0" result="BackgroundImageFix"/>
<feColorMatrix in="SourceAlpha" type="matrix" values="0 0 0 0 0 0 0 0 0 0 0 0 0 0 0 0 0 0 127 0" result="hardAlpha"/>
<feOffset/>
<feGaussianBlur stdDeviation="10"/>
<feComposite in2="hardAlpha" operator="out"/>
<feColorMatrix type="matrix" values="0 0 0 0 0.845833 0 0 0 0 0.845833 0 0 0 0 0.845833 0 0 0 1 0"/>
<feBlend mode="normal" in2="BackgroundImageFix" result="effect1_dropShadow_2_2"/>
<feBlend mode="normal" in="SourceGraphic" in2="effect1_dropShadow_2_2" result="shape"/>
</filter>
<filter id="filter4_d_2_2" x="727" y="437" width="50" height="50" filterUnits="userSpaceOnUse" color-interpolation-filters="sRGB">
<feFlood flood-opacity="0" result="BackgroundImageFix"/>
<feColorMatrix in="SourceAlpha" type="matrix" values="0 0 0 0 0 0 0 0 0 0 0 0 0 0 0 0 0 0 127 0" result="hardAlpha"/>
<feOffset/>
<feGaussianBlur stdDeviation="10"/>
<feComposite in2="hardAlpha" operator="out"/>
<feColorMatrix type="matrix" values="0 0 0 0 0.845833 0 0 0 0 0.845833 0 0 0 0 0.845833 0 0 0 1 0"/>
<feBlend mode="normal" in2="BackgroundImageFix" result="effect1_dropShadow_2_2"/>
<feBlend mode="normal" in="SourceGraphic" in2="effect1_dropShadow_2_2" result="shape"/>
</filter>
<filter id="filter5_d_2_2" x="786" y="61" width="50" height="50" filterUnits="userSpaceOnUse" color-interpolation-filters="sRGB">
<feFlood flood-opacity="0" result="BackgroundImageFix"/>
<feColorMatrix in="SourceAlpha" type="matrix" values="0 0 0 0 0 0 0 0 0 0 0 0 0 0 0 0 0 0 127 0" result="hardAlpha"/>
<feOffset/>
<feGaussianBlur stdDeviation="10"/>
<feComposite in2="hardAlpha" operator="out"/>
<feColorMatrix type="matrix" values="0 0 0 0 0.845833 0 0 0 0 0.845833 0 0 0 0 0.845833 0 0 0 1 0"/>
<feBlend mode="normal" in2="BackgroundImageFix" result="effect1_dropShadow_2_2"/>
<feBlend mode="normal" in="SourceGraphic" in2="effect1_dropShadow_2_2" result="shape"/>
</filter>
<filter id="filter6_d_2_2" x="1264" y="36" width="50" height="50" filterUnits="userSpaceOnUse" color-interpolation-filters="sRGB">
<feFlood flood-opacity="0" result="BackgroundImageFix"/>
<feColorMatrix in="SourceAlpha" type="matrix" values="0 0 0 0 0 0 0 0 0 0 0 0 0 0 0 0 0 0 127 0" result="hardAlpha"/>
<feOffset/>
<feGaussianBlur stdDeviation="10"/>
<feComposite in2="hardAlpha" operator="out"/>
<feColorMatrix type="matrix" values="0 0 0 0 0.845833 0 0 0 0 0.845833 0 0 0 0 0.845833 0 0 0 1 0"/>
<feBlend mode="normal" in2="BackgroundImageFix" result="effect1_dropShadow_2_2"/>
<feBlend mode="normal" in="SourceGraphic" in2="effect1_dropShadow_2_2" result="shape"/>
</filter>
<filter id="filter7_f_2_2" x="-10" y="-10" width="1460" height="1030" filterUnits="userSpaceOnUse" color-interpolation-filters="sRGB">
<feFlood flood-opacity="0" result="BackgroundImageFix"/>
<feBlend mode="normal" in="SourceGraphic" in2="BackgroundImageFix" result="shape"/>
<feGaussianBlur stdDeviation="5" result="effect1_foregroundBlur_2_2"/>
</filter>
<filter id="filter8_f_2_2" x="-24" y="-10" width="1511" height="918" filterUnits="userSpaceOnUse" color-interpolation-filters="sRGB">
<feFlood flood-opacity="0" result="BackgroundImageFix"/>
<feBlend mode="normal" in="SourceGraphic" in2="BackgroundImageFix" result="shape"/>
<feGaussianBlur stdDeviation="5" result="effect1_foregroundBlur_2_2"/>
</filter>
<linearGradient id="paint0_linear_2_2" x1="1596.5" y1="-31" x2="148" y2="1252.5" gradientUnits="userSpaceOnUse">
<stop offset="0.0997777" stop-color="#0A081C"/>
<stop offset="0.38112" stop-color="#0A081C"/>
<stop offset="0.663579" stop-color="#0A081C" stop-opacity="0.768706"/>
<stop offset="0.942098" stop-color="#0A081C" stop-opacity="0"/>
<stop offset="1" stop-color="#0A081C" stop-opacity="0.01"/>
</linearGradient>
<linearGradient id="paint1_linear_2_2" x1="957" y1="-12.5" x2="731.5" y2="898" gradientUnits="userSpaceOnUse">
<stop offset="0.239583" stop-color="#525252"/>
<stop offset="0.947917" stop-color="#525252" stop-opacity="0"/>
</linearGradient>
<clipPath id="clip0_2_2">
<rect width="1440" height="1024" fill="white"/>
</clipPath>
</defs>
</svg>
