<svg width="97" height="96" viewBox="0 0 97 96" fill="none" xmlns="http://www.w3.org/2000/svg">
<path d="M61.0527 95.3474C69.7966 93.0045 77.7103 88.2612 83.8984 81.6542C90.0865 75.0472 94.3021 66.8403 96.0681 57.9619C97.8341 49.0835 97.0801 39.888 93.8914 31.4159C90.7027 22.9437 85.2066 15.5331 78.0249 10.0224C70.8432 4.51164 62.2626 1.12082 53.2538 0.23354C44.2451 -0.653744 35.1678 0.997925 27.049 5.00167C18.9302 9.00543 12.0939 15.2014 7.31369 22.8887C2.53344 30.576 -1.58276e-06 39.4477 0 48.5L14.55 48.5C14.55 42.1634 16.3234 35.9532 19.6696 30.5721C23.0158 25.191 27.8011 20.8538 33.4843 18.0512C39.1675 15.2485 45.5216 14.0924 51.8277 14.7135C58.1338 15.3346 64.1403 17.7081 69.1674 21.5657C74.1946 25.4232 78.0419 30.6106 80.274 36.5411C82.5061 42.4716 83.0339 48.9084 81.7977 55.1233C80.5614 61.3382 77.6106 67.0831 73.2789 71.708C68.9472 76.3328 63.4076 79.6531 57.2869 81.2932L61.0527 95.3474Z" fill="#EBEDDC" fill-opacity="0.72"/>
</svg>
