<svg width="456" height="427" viewBox="0 0 456 427" fill="none" xmlns="http://www.w3.org/2000/svg">
<g filter="url(#filter0_d_5_23)">
<path d="M4 224C4 184.593 14.3957 145.884 34.1378 111.779C53.88 77.6747 82.2697 49.3816 116.442 29.756C150.613 10.1304 189.358 -0.133172 228.764 0.00130428C268.171 0.13578 306.844 10.6635 340.881 30.5219C374.919 50.3803 403.115 78.8665 422.624 113.105C442.132 147.344 452.264 186.123 451.995 225.529C451.726 264.935 441.066 303.572 421.092 337.541C401.117 371.51 372.535 399.609 338.23 419.001L283.115 321.5C300.268 311.804 314.559 297.755 324.546 280.771C334.533 263.786 339.863 244.467 339.997 224.764C340.132 205.062 335.066 185.672 325.312 168.553C315.557 151.433 301.459 137.19 284.441 127.261C267.422 117.332 248.085 112.068 228.382 112.001C208.679 111.933 189.307 117.065 172.221 126.878C155.135 136.691 140.94 150.837 131.069 167.89C121.198 184.942 116 204.297 116 224H4Z" fill="url(#paint0_radial_5_23)" shape-rendering="crispEdges"/>
</g>
<defs>
<filter id="filter0_d_5_23" x="0" y="0" width="456" height="427.001" filterUnits="userSpaceOnUse" color-interpolation-filters="sRGB">
<feFlood flood-opacity="0" result="BackgroundImageFix"/>
<feColorMatrix in="SourceAlpha" type="matrix" values="0 0 0 0 0 0 0 0 0 0 0 0 0 0 0 0 0 0 127 0" result="hardAlpha"/>
<feOffset dy="4"/>
<feGaussianBlur stdDeviation="2"/>
<feComposite in2="hardAlpha" operator="out"/>
<feColorMatrix type="matrix" values="0 0 0 0 0.870833 0 0 0 0 0.870833 0 0 0 0 0.870833 0 0 0 1 0"/>
<feBlend mode="normal" in2="BackgroundImageFix" result="effect1_dropShadow_5_23"/>
<feBlend mode="normal" in="SourceGraphic" in2="effect1_dropShadow_5_23" result="shape"/>
</filter>
<radialGradient id="paint0_radial_5_23" cx="0" cy="0" r="1" gradientUnits="userSpaceOnUse" gradientTransform="translate(228 224) rotate(90) scale(224)">
<stop offset="0.182292" stop-color="#F4F4F4"/>
<stop offset="0.838542" stop-color="#B1B1B1" stop-opacity="0"/>
</radialGradient>
</defs>
</svg>
